<svg width="32" height="34" viewBox="0 0 32 34" fill="none" xmlns="http://www.w3.org/2000/svg">
<path id="Vector" d="M16 0C18.1217 0 20.1566 0.885894 21.6569 2.4628C23.1571 4.0397 24 6.17843 24 8.40851C24 10.6386 23.1571 12.7773 21.6569 14.3542C20.1566 15.9311 18.1217 16.817 16 16.817C13.8783 16.817 11.8434 15.9311 10.3431 14.3542C8.84285 12.7773 8 10.6386 8 8.40851C8 6.17843 8.84285 4.0397 10.3431 2.4628C11.8434 0.885894 13.8783 0 16 0ZM16 21.0213C24.84 21.0213 32 24.7841 32 29.4298V33.634H0V29.4298C0 24.7841 7.16 21.0213 16 21.0213Z" fill="black"/>
</svg>
